<svg width="1918" height="2031" viewBox="0 0 1918 2031" fill="none" xmlns="http://www.w3.org/2000/svg">
<g opacity="0.6" clip-path="url(#clip0_1_1771)">
<path d="M799.861 -552.576V-2027.57L161.357 -1290.08V184.903L799.861 -552.576Z" fill="white"/>
<path d="M799.861 -552.576L1438.36 184.903V-1290.08L799.861 -2027.57V-552.576Z" fill="white"/>
<path d="M799.861 -552.575L161.357 184.903L799.861 922.403L1438.36 184.903L799.861 -552.575Z" fill="white"/>
<path d="M1119.12 -183.853V-921.331L799.861 -552.576V184.903L1119.12 -183.853Z" fill="white"/>
<path d="M1119.12 -183.853L1438.37 184.903V-552.576L1119.12 -921.331V-183.853Z" fill="white"/>
<path d="M1119.12 -183.852L799.861 184.904L1119.12 553.648L1438.36 184.904L1119.12 -183.852Z" fill="white"/>
<path d="M1438.37 922.403V184.903L1119.12 553.648V1291.13L1438.37 922.403Z" fill="#DADADA"/>
<path d="M1438.37 922.403L1757.62 1291.13V553.648L1438.37 184.903V922.403Z" fill="#DDDDDD"/>
<path d="M1438.37 922.403L1119.12 1291.13L1438.37 1659.89L1757.62 1291.13L1438.37 922.403Z" fill="#E7E7E7"/>
<path d="M1438.37 -552.576L1119.12 -183.853L1438.37 184.903L1757.62 -183.853L1438.37 -552.576Z" fill="white"/>
<path d="M1119.12 2028.63V1291.13L799.861 1659.89V2397.38L1119.12 2028.63Z" fill="#E4E4E4"/>
<path d="M1119.12 2028.63L1438.37 2397.38V1659.89L1119.12 1291.13V2028.63Z" fill="#EAEAEA"/>
<path d="M1119.12 2028.63L799.861 2397.38L1119.12 2766.13L1438.36 2397.38L1119.12 2028.63Z" fill="#F4F4F4"/>
<path d="M480.615 553.648V-183.853L161.357 184.903V922.403L480.615 553.648Z" fill="#EAEAEA"/>
<path d="M480.615 553.648L799.862 922.403V184.903L480.615 -183.853V553.648Z" fill="#EFEFEF"/>
<path d="M480.615 553.648L161.357 922.403L480.615 1291.13L799.861 922.403L480.615 553.648Z" fill="#F8F8F8"/>
<path d="M799.862 922.403V184.903L480.615 553.648V1291.13L799.862 922.403Z" fill="#E4E4E4"/>
<path d="M799.861 922.403L1119.12 1291.13V553.648L799.861 184.903V922.403Z" fill="#E9E9E9"/>
<path d="M799.862 922.403L480.615 1291.13L799.862 1659.89L1119.12 1291.13L799.862 922.403Z" fill="#F4F4F4"/>
<path d="M480.615 1291.13V553.648L161.357 922.403V1659.89L480.615 1291.13Z" fill="#EBEBEB"/>
<path d="M480.615 1291.13L799.862 1659.89V922.403L480.615 553.648V1291.13Z" fill="#F1F1F1"/>
<path d="M480.615 1291.13L161.357 1659.89L480.615 2028.63L799.861 1659.89L480.615 1291.13Z" fill="#FAFAFA"/>
<path d="M161.359 2397.38V1659.89L-157.898 2028.63V2766.13L161.359 2397.38Z" fill="white"/>
<path d="M161.357 2397.38L480.615 2766.13V2028.63L161.357 1659.89V2397.38Z" fill="white"/>
<path d="M480.615 2028.63V1291.13L161.357 1659.89V2397.38L480.615 2028.63Z" fill="#E4E4E4"/>
<path d="M480.615 2028.63L799.862 2397.38V1659.89L480.615 1291.13V2028.63Z" fill="#EAEAEA"/>
<path d="M480.615 2028.63L161.357 2397.38L480.615 2766.13L799.861 2397.38L480.615 2028.63Z" fill="#F1F1F1"/>
<path d="M161.359 184.904V-552.575L-157.898 -183.852V553.648L161.359 184.904Z" fill="#EAEAEA"/>
<path d="M161.357 184.904L480.615 553.648V-183.852L161.357 -552.575V184.904Z" fill="#F0F0F0"/>
<path d="M161.359 184.903L-157.898 553.648L161.359 922.403L480.616 553.648L161.359 184.903Z" fill="#F9F9F9"/>
<path d="M480.615 184.926V-183.83L320.979 0.537231V369.293L480.615 184.926Z" fill="#EEEEEE"/>
<path d="M480.615 184.926L640.236 369.293V0.537231L480.615 -183.83V184.926Z" fill="#F4F4F4"/>
<path d="M480.615 184.926L320.979 369.293L480.615 553.648L640.236 369.293L480.615 184.926Z" fill="#FDFDFD"/>
<path d="M320.978 0.536026V-368.22L161.357 -183.831V184.925L320.978 0.536026Z" fill="#EDEDED"/>
<path d="M320.979 0.536026L480.615 184.925V-183.831L320.979 -368.22V0.536026Z" fill="#F3F3F3"/>
<path d="M320.978 0.537292L161.357 184.926L320.978 369.293L480.615 184.926L320.978 0.537292Z" fill="#FCFCFC"/>
<path d="M480.615 -183.831L320.979 0.536041L480.615 184.925L640.236 0.536041L480.615 -183.831Z" fill="#E1E1E1"/>
<path d="M959.493 0.535919V-368.22L799.861 -183.853V184.903L959.493 0.535919Z" fill="#E3E3E3"/>
<path d="M959.494 0.535919L1119.12 184.903V-183.853L959.494 -368.22V0.535919Z" fill="#E9E9E9"/>
<path d="M959.493 0.536346L799.861 184.903L959.493 369.27L1119.12 184.903L959.493 0.536346Z" fill="#F1F1F1"/>
<path d="M799.862 553.649V184.904L640.236 369.271V738.016L799.862 553.649Z" fill="#EAEAEA"/>
<path d="M799.861 553.649L959.493 738.016V369.271L799.861 184.904V553.649Z" fill="#F0F0F0"/>
<path d="M799.862 553.648L640.236 738.014L799.862 922.403L959.494 738.014L799.862 553.648Z" fill="#F8F8F8"/>
<path d="M959.493 369.271V0.536804L799.861 184.904V553.648L959.493 369.271Z" fill="#DFDFDF"/>
<path d="M959.494 369.271L1119.12 553.648V184.904L959.494 0.536804V369.271Z" fill="#E4E4E4"/>
<path d="M959.493 369.271L799.861 553.649L959.493 738.016L1119.12 553.649L959.493 369.271Z" fill="#EFEFEF"/>
<path d="M640.236 369.271V0.536804L480.615 184.904V553.648L640.236 369.271Z" fill="#E0E0E0"/>
<path d="M640.236 369.271L799.862 553.648V184.904L640.236 0.536804V369.271Z" fill="#E5E5E5"/>
<path d="M640.236 369.271L480.615 553.649L640.236 738.016L799.862 553.649L640.236 369.271Z" fill="#F0F0F0"/>
<path d="M799.862 -183.853L640.236 0.535904L799.862 184.903L959.494 0.535904L799.862 -183.853Z" fill="#DFDFDF"/>
<path d="M1119.12 922.404V553.648L959.494 738.015V1106.77L1119.12 922.404Z" fill="#E8E8E8"/>
<path d="M1119.12 922.404L1278.74 1106.77V738.015L1119.12 553.648V922.404Z" fill="#EEEEEE"/>
<path d="M1119.12 922.403L959.494 1106.77L1119.12 1291.13L1278.74 1106.77L1119.12 922.403Z" fill="#F6F6F6"/>
<path d="M1278.74 738.014V369.27L1119.12 553.648V922.403L1278.74 738.014Z" fill="#E9E9E9"/>
<path d="M1278.74 738.014L1438.37 922.403V553.648L1278.74 369.27V738.014Z" fill="#EFEFEF"/>
<path d="M1278.74 738.015L1119.12 922.404L1278.74 1106.77L1438.37 922.404L1278.74 738.015Z" fill="#F7F7F7"/>
<path d="M959.493 738.014V369.27L799.861 553.648V922.403L959.493 738.014Z" fill="#E1E1E1"/>
<path d="M959.494 738.014L1119.12 922.403V553.648L959.494 369.27V738.014Z" fill="#E6E6E6"/>
<path d="M959.493 738.015L799.861 922.404L959.493 1106.77L1119.12 922.404L959.493 738.015Z" fill="#EEEEEE"/>
<path d="M1119.12 184.903V-183.852L959.494 0.536346V369.27L1119.12 184.903Z" fill="#E1E1E1"/>
<path d="M1119.12 184.903L1278.74 369.27V0.536346L1119.12 -183.852V184.903Z" fill="#E6E6E6"/>
<path d="M1119.12 184.904L959.494 369.271L1119.12 553.648L1278.74 369.271L1119.12 184.904Z" fill="#EEEEEE"/>
<path d="M1119.12 553.649V184.904L959.494 369.271V738.016L1119.12 553.649Z" fill="#EDEDED"/>
<path d="M1119.12 553.649L1278.74 738.016V369.271L1119.12 184.904V553.649Z" fill="#EAEAEA"/>
<path d="M1119.12 553.648L959.494 738.014L1119.12 922.403L1278.74 738.014L1119.12 553.648Z" fill="#EAEAEA"/>
<path d="M1598 0.535919V-368.22L1438.37 -183.853V184.903L1598 0.535919Z" fill="#E2E2E2"/>
<path d="M1598 0.535919L1757.62 184.903V-183.853L1598 -368.22V0.535919Z" fill="#E8E8E8"/>
<path d="M1598 0.536346L1438.37 184.903L1598 369.27L1757.62 184.903L1598 0.536346Z" fill="#F1F1F1"/>
<path d="M1278.74 0.535919V-368.22L1119.12 -183.853V184.903L1278.74 0.535919Z" fill="#E2E2E2"/>
<path d="M1278.74 0.535919L1438.37 184.903V-183.853L1278.74 -368.22V0.535919Z" fill="#E8E8E8"/>
<path d="M1278.74 0.536346L1119.12 184.903L1278.74 369.27L1438.37 184.903L1278.74 0.536346Z" fill="#F0F0F0"/>
<path d="M1278.74 369.271V0.536804L1119.12 184.904V553.648L1278.74 369.271Z" fill="#E5E5E5"/>
<path d="M1278.74 369.271L1438.37 553.648V184.904L1278.74 0.536804V369.271Z" fill="#EAEAEA"/>
<path d="M1278.74 369.271L1119.12 553.649L1278.74 738.016L1438.37 553.649L1278.74 369.271Z" fill="#F2F2F2"/>
<path d="M1598 369.271V0.536804L1438.37 184.904V553.648L1598 369.271Z" fill="#E5E5E5"/>
<path d="M1598 369.271L1757.62 553.648V184.904L1598 0.536804V369.271Z" fill="#EAEAEA"/>
<path d="M1598 369.271L1438.37 553.649L1598 738.016L1757.62 553.649L1598 369.271Z" fill="#F4F4F4"/>
<path d="M1917.24 738.014V369.27L1757.62 553.648V922.403L1917.24 738.014Z" fill="#E6E6E6"/>
<path d="M1917.24 738.015L1757.62 922.404L1917.24 1106.77L2076.88 922.404L1917.24 738.015Z" fill="#F7F7F7"/>
<path d="M1757.62 184.903V-183.852L1598 0.536346V369.27L1757.62 184.903Z" fill="#E0E0E0"/>
<path d="M1757.62 184.903L1917.24 369.27V0.536346L1757.62 -183.852V184.903Z" fill="#E5E5E5"/>
<path d="M1757.62 184.904L1598 369.271L1757.62 553.648L1917.24 369.271L1757.62 184.904Z" fill="#F1F1F1"/>
<path d="M1917.24 1106.79V738.015L1757.62 922.404V1291.15L1917.24 1106.79Z" fill="#E6E6E6"/>
<path d="M1917.24 1106.79L1757.62 1291.15L1917.24 1475.52L2076.88 1291.15L1917.24 1106.79Z" fill="#F7F7F7"/>
<path d="M1917.24 1475.51V1106.79L1757.62 1291.15V1659.89L1917.24 1475.51Z" fill="#E5E5E5"/>
<path d="M1917.24 1475.52L1757.62 1659.89L1917.24 1844.27L2076.88 1659.89L1917.24 1475.52Z" fill="#F7F7F7"/>
<path d="M1598 1475.51V1106.79L1438.37 1291.15V1659.89L1598 1475.51Z" fill="#E5E5E5"/>
<path d="M1598 1475.51L1757.62 1659.89V1291.15L1598 1106.79V1475.51Z" fill="#EAEAEA"/>
<path d="M1598 1475.52L1438.37 1659.89L1598 1844.27L1757.62 1659.89L1598 1475.52Z" fill="#F6F6F6"/>
<path d="M1757.62 1291.15V922.404L1598 1106.79V1475.52L1757.62 1291.15Z" fill="#E2E2E2"/>
<path d="M1757.62 1291.15L1917.24 1475.52V1106.79L1757.62 922.404V1291.15Z" fill="#E5E5E5"/>
<path d="M1757.62 1291.15L1598 1475.51L1757.62 1659.89L1917.24 1475.51L1757.62 1291.15Z" fill="#EDEDED"/>
<path d="M1598 1844.27V1475.5L1438.37 1659.88V2028.63L1598 1844.27Z" fill="#E3E3E3"/>
<path d="M1598 1844.27L1757.62 2028.63V1659.88L1598 1475.5V1844.27Z" fill="#E8E8E8"/>
<path d="M1598 1844.27L1438.37 2028.63L1598 2213L1757.62 2028.63L1598 1844.27Z" fill="#F4F4F4"/>
<path d="M1598 2213.01V1844.27L1438.37 2028.63V2397.38L1598 2213.01Z" fill="#E7E7E7"/>
<path d="M1598 2213.01L1757.62 2397.38V2028.63L1598 1844.27V2213.01Z" fill="white"/>
<path d="M1757.62 1659.88V1291.13L1598 1475.5V1844.27L1757.62 1659.88Z" fill="#E3E3E3"/>
<path d="M1757.62 1659.88L1917.24 1844.27V1475.5L1757.62 1291.13V1659.88Z" fill="#E7E7E7"/>
<path d="M1757.62 1659.88L1598 1844.27L1757.62 2028.63L1917.24 1844.27L1757.62 1659.88Z" fill="#F2F2F2"/>
<path d="M1757.62 2028.63V1659.88L1598 1844.27V2213L1757.62 2028.63Z" fill="#E6E6E6"/>
<path d="M1757.62 2028.63L1917.24 2213V1844.27L1757.62 1659.88V2028.63Z" fill="#F3F3F3"/>
<path d="M1757.62 2028.63L1598 2213L1757.62 2397.38L1917.24 2213L1757.62 2028.63Z" fill="#F1F1F1"/>
<path d="M959.493 1106.79V738.015L799.861 922.404V1291.15L959.493 1106.79Z" fill="#EAEAEA"/>
<path d="M959.494 1106.79L1119.12 1291.15V922.404L959.494 738.015V1106.79Z" fill="#F0F0F0"/>
<path d="M959.493 1106.79L799.861 1291.15L959.493 1475.52L1119.12 1291.15L959.493 1106.79Z" fill="#F8F8F8"/>
<path d="M1119.12 1659.89V1291.15L959.494 1475.52V1844.27L1119.12 1659.89Z" fill="#E0E0E0"/>
<path d="M1119.12 1659.89L1278.74 1844.27V1475.52L1119.12 1291.15V1659.89Z" fill="#E5E5E5"/>
<path d="M1119.12 1659.89L959.494 1844.27L1119.12 2028.63L1278.74 1844.27L1119.12 1659.89Z" fill="#F0F0F0"/>
<path d="M1119.12 1291.15V922.404L959.494 1106.79V1475.52L1119.12 1291.15Z" fill="#E0E0E0"/>
<path d="M1119.12 1291.15L1278.74 1475.52V1106.79L1119.12 922.404V1291.15Z" fill="#E5E5E5"/>
<path d="M1119.12 1291.15L959.494 1475.51L1119.12 1659.89L1278.74 1475.51L1119.12 1291.15Z" fill="#EFEFEF"/>
<path d="M959.493 1475.51V1106.77L799.861 1291.13V1659.89L959.493 1475.51Z" fill="#E8E8E8"/>
<path d="M959.494 1475.51L1119.12 1659.89V1291.13L959.494 1106.77V1475.51Z" fill="#EEEEEE"/>
<path d="M959.493 1475.52L799.861 1659.89L959.493 1844.27L1119.12 1659.89L959.493 1475.52Z" fill="#F6F6F6"/>
<path d="M640.236 1475.51V1106.77L480.615 1291.13V1659.89L640.236 1475.51Z" fill="#E7E7E7"/>
<path d="M640.236 1475.51L799.862 1659.89V1291.13L640.236 1106.77V1475.51Z" fill="#EEEEEE"/>
<path d="M640.236 1475.52L480.615 1659.89L640.236 1844.27L799.862 1659.89L640.236 1475.52Z" fill="#F4F4F4"/>
<path d="M959.493 1844.27V1475.52L799.861 1659.89V2028.63L959.493 1844.27Z" fill="#E5E5E5"/>
<path d="M959.494 1844.27L1119.12 2028.63V1659.89L959.494 1475.52V1844.27Z" fill="#EAEAEA"/>
<path d="M959.493 1844.27L799.861 2028.63L959.493 2213L1119.12 2028.63L959.493 1844.27Z" fill="#F4F4F4"/>
<path d="M640.236 1844.27V1475.52L480.615 1659.89V2028.63L640.236 1844.27Z" fill="#E5E5E5"/>
<path d="M640.236 1844.27L799.862 2028.63V1659.89L640.236 1475.52V1844.27Z" fill="#EAEAEA"/>
<path d="M640.236 1844.27L480.615 2028.63L640.236 2213L799.862 2028.63L640.236 1844.27Z" fill="#F2F2F2"/>
<path d="M799.862 1291.13V922.404L640.236 1106.77V1475.52L799.862 1291.13Z" fill="#DFDFDF"/>
<path d="M799.861 1291.13L959.493 1475.52V1106.77L799.861 922.404V1291.13Z" fill="#E4E4E4"/>
<path d="M799.862 1291.13L640.236 1475.51L799.862 1659.89L959.494 1475.51L799.862 1291.13Z" fill="#EEEEEE"/>
<path d="M799.862 1659.89V1291.13L640.236 1475.52V1844.27L799.862 1659.89Z" fill="#E6E6E6"/>
<path d="M799.861 1659.89L959.493 1844.27V1475.52L799.861 1291.13V1659.89Z" fill="#EBEBEB"/>
<path d="M799.862 1659.89L640.236 1844.27L799.862 2028.63L959.494 1844.27L799.862 1659.89Z" fill="#F5F5F5"/>
<path d="M320.978 369.271V0.536804L161.357 184.904V553.648L320.978 369.271Z" fill="#EBEBEB"/>
<path d="M320.979 369.271L480.615 553.648V184.904L320.979 0.536804V369.271Z" fill="#F1F1F1"/>
<path d="M320.978 369.271L161.357 553.649L320.978 738.016L480.615 553.649L320.978 369.271Z" fill="#FAFAFA"/>
<path d="M480.615 922.404V553.648L320.979 738.015V1106.77L480.615 922.404Z" fill="#EEEEEE"/>
<path d="M480.615 922.404L640.236 1106.77V738.015L480.615 553.648V922.404Z" fill="#F4F4F4"/>
<path d="M480.615 922.403L320.979 1106.77L480.615 1291.13L640.236 1106.77L480.615 922.403Z" fill="#FEFEFE"/>
<path d="M640.236 738.014V369.27L480.615 553.648V922.403L640.236 738.014Z" fill="#EAEAEA"/>
<path d="M640.236 738.014L799.862 922.403V553.648L640.236 369.27V738.014Z" fill="#F0F0F0"/>
<path d="M640.236 738.015L480.615 922.404L640.236 1106.77L799.862 922.404L640.236 738.015Z" fill="#F8F8F8"/>
<path d="M320.978 738.014V369.27L161.357 553.648V922.403L320.978 738.014Z" fill="#E6E6E6"/>
<path d="M320.979 738.014L480.615 922.403V553.648L320.979 369.27V738.014Z" fill="#ECECEC"/>
<path d="M320.978 738.015L161.357 922.404L320.978 1106.77L480.615 922.404L320.978 738.015Z" fill="#F4F4F4"/>
<path d="M320.978 738.014V369.27L161.357 553.648V922.403L320.978 738.014Z" fill="#E6E6E6"/>
<path d="M320.979 738.014L480.615 922.403V553.648L320.979 369.27V738.014Z" fill="#ECECEC"/>
<path d="M320.978 738.015L161.357 922.404L320.978 1106.77L480.615 922.404L320.978 738.015Z" fill="#F4F4F4"/>
<path d="M1.73296 738.014V369.27L-157.898 553.648V922.403L1.73296 738.014Z" fill="#EAEAEA"/>
<path d="M1.73242 738.014L161.358 922.403V553.648L1.73242 369.27V738.014Z" fill="#F1F1F1"/>
<path d="M1.73294 738.015L-157.898 922.404L1.73294 1106.77L161.359 922.404L1.73294 738.015Z" fill="#FBFBFB"/>
<path d="M1.73296 1106.77V738.014L-157.898 922.403V1291.13L1.73296 1106.77Z" fill="#ECECEC"/>
<path d="M1.73242 1106.77L161.358 1291.13V922.403L1.73242 738.014V1106.77Z" fill="#F2F2F2"/>
<path d="M1.73294 1106.77L-157.898 1291.13L1.73294 1475.52L161.359 1291.13L1.73294 1106.77Z" fill="#FBFBFB"/>
<path d="M161.358 553.649V184.904L1.73242 369.271V738.016L161.358 553.649Z" fill="#ECECEC"/>
<path d="M161.357 553.649L320.978 738.016V369.271L161.357 184.904V553.649Z" fill="#F1F1F1"/>
<path d="M161.358 553.648L1.73242 738.014L161.358 922.403L320.979 738.014L161.358 553.648Z" fill="#FAFAFA"/>
<path d="M320.978 1475.51V1106.77L161.357 1291.13V1659.89L320.978 1475.51Z" fill="#E6E6E6"/>
<path d="M320.979 1475.51L480.615 1659.89V1291.13L320.979 1106.77V1475.51Z" fill="#ECECEC"/>
<path d="M320.978 1475.52L161.357 1659.89L320.978 1844.27L480.615 1659.89L320.978 1475.52Z" fill="#F4F4F4"/>
<path d="M1.73296 1475.51V1106.77L-157.898 1291.13V1659.89L1.73296 1475.51Z" fill="#E9E9E9"/>
<path d="M1.73242 1475.51L161.358 1659.89V1291.13L1.73242 1106.77V1475.51Z" fill="#EFEFEF"/>
<path d="M1.73294 1475.52L-157.898 1659.89L1.73294 1844.27L161.359 1659.89L1.73294 1475.52Z" fill="#F7F7F7"/>
<path d="M161.358 2028.63V1659.89L1.73242 1844.27V2213L161.358 2028.63Z" fill="#E7E7E7"/>
<path d="M161.357 2028.63L320.978 2213V1844.27L161.357 1659.89V2028.63Z" fill="#EDEDED"/>
<path d="M161.358 2028.63L1.73242 2213L161.358 2397.38L320.979 2213L161.358 2028.63Z" fill="#F5F5F5"/>
<path d="M1.73296 1844.27V1475.52L-157.898 1659.89V2028.63L1.73296 1844.27Z" fill="#EAEAEA"/>
<path d="M1.73242 1844.27L161.358 2028.63V1659.89L1.73242 1475.52V1844.27Z" fill="#F0F0F0"/>
<path d="M1.73294 1844.27L-157.898 2028.63L1.73294 2213L161.359 2028.63L1.73294 1844.27Z" fill="#F9F9F9"/>
<path d="M161.358 1291.13V922.404L1.73242 1106.77V1475.52L161.358 1291.13Z" fill="#EBEBEB"/>
<path d="M161.357 1291.13L320.978 1475.52V1106.77L161.357 922.404V1291.13Z" fill="#F1F1F1"/>
<path d="M161.358 1291.13L1.73242 1475.51L161.358 1659.89L320.979 1475.51L161.358 1291.13Z" fill="#FAFAFA"/>
<path d="M1.73296 369.271V0.536804L-157.898 184.904V553.648L1.73296 369.271Z" fill="#E7E7E7"/>
<path d="M1.73242 369.271L161.358 553.648V184.904L1.73242 0.536804V369.271Z" fill="#F9F9F9"/>
<path d="M1.73294 369.271L-157.898 553.649L1.73294 738.016L161.359 553.649L1.73294 369.271Z" fill="#F8F8F8"/>
<path d="M1.73296 738.014V369.27L-157.898 553.648V922.403L1.73296 738.014Z" fill="#EAEAEA"/>
<path d="M1.73242 738.014L161.358 922.403V553.648L1.73242 369.27V738.014Z" fill="#F1F1F1"/>
<path d="M1.73294 738.015L-157.898 922.404L1.73294 1106.77L161.359 922.404L1.73294 738.015Z" fill="#FBFBFB"/>
<path d="M-157.898 184.903L1.73296 369.27V0.536346L-157.898 -183.852V184.903Z" fill="#F6F6F6"/>
<path d="M-157.9 184.904L-317.525 369.271L-157.9 553.648L1.73187 369.271L-157.9 184.904Z" fill="#FEFEFE"/>
<path d="M1.73296 1844.27V1475.5L-157.898 1659.88V2028.63L1.73296 1844.27Z" fill="#EAEAEA"/>
<path d="M1.73242 1844.27L161.358 2028.63V1659.88L1.73242 1475.5V1844.27Z" fill="#F5F5F5"/>
<path d="M1.73294 1844.27L-157.898 2028.63L1.73294 2213L161.359 2028.63L1.73294 1844.27Z" fill="#E0E0E0"/>
<path d="M-157.898 2397.38L1.73296 2581.76V2213L-157.898 2028.63V2397.38Z" fill="#FAFAFA"/>
<path d="M-157.898 1659.88L1.73296 1844.27V1475.5L-157.898 1291.13V1659.88Z" fill="#F2F2F2"/>
<path d="M-157.9 1659.88L-317.525 1844.27L-157.9 2028.63L1.73187 1844.27L-157.9 1659.88Z" fill="#FAFAFA"/>
<path d="M1.73296 1106.79V738.015L-157.898 922.404V1291.15L1.73296 1106.79Z" fill="#ECECEC"/>
<path d="M1.73242 1106.79L161.358 1291.15V922.404L1.73242 738.015V1106.79Z" fill="#F2F2F2"/>
<path d="M1.73294 1106.79L-157.898 1291.15L1.73294 1475.52L161.359 1291.15L1.73294 1106.79Z" fill="#FBFBFB"/>
<path d="M-157.898 1659.89L1.73296 1844.27V1475.52L-157.898 1291.15V1659.89Z" fill="#F2F2F2"/>
<path d="M-157.9 1659.89L-317.525 1844.27L-157.9 2028.63L1.73187 1844.27L-157.9 1659.89Z" fill="#FAFAFA"/>
<path d="M-157.898 922.404L1.73296 1106.79V738.015L-157.898 553.648V922.404Z" fill="#F4F4F4"/>
<path d="M-157.9 922.404L-317.525 1106.79L-157.9 1291.15L1.73187 1106.79L-157.9 922.404Z" fill="#FEFEFE"/>
<path d="M1598 1475.51V1106.77L1438.37 1291.13V1659.89L1598 1475.51Z" fill="#E5E5E5"/>
<path d="M1598 1475.51L1757.62 1659.89V1291.13L1598 1106.77V1475.51Z" fill="#EAEAEA"/>
<path d="M1598 1475.52L1438.37 1659.89L1598 1844.27L1757.62 1659.89L1598 1475.52Z" fill="#F6F6F6"/>
<path d="M1278.74 1475.51V1106.77L1119.12 1291.13V1659.89L1278.74 1475.51Z" fill="#E4E4E4"/>
<path d="M1278.74 1475.51L1438.37 1659.89V1291.13L1278.74 1106.77V1475.51Z" fill="#EAEAEA"/>
<path d="M1278.74 1475.52L1119.12 1659.89L1278.74 1844.27L1438.37 1659.89L1278.74 1475.52Z" fill="#F1F1F1"/>
<path d="M1438.37 1291.13V922.404L1278.74 1106.77V1475.52L1438.37 1291.13Z" fill="#E7E7E7"/>
<path d="M1438.37 1291.13L1598 1475.52V1106.77L1438.37 922.404V1291.13Z" fill="#EEEEEE"/>
<path d="M1438.37 1291.13L1278.74 1475.51L1438.37 1659.89L1598 1475.51L1438.37 1291.13Z" fill="#F7F7F7"/>
<path style="mix-blend-mode:multiply" d="M799.846 1654.14C820.377 1586.26 886.662 1570.7 996.362 1622.91C1236.79 1737.33 1594.75 2133.71 1795.87 2508.27C1904.56 2710.67 1945.2 2865.28 1921.67 2946.61L799.846 1654.14Z" fill="url(#paint0_radial_1_1771)"/>
<path style="mix-blend-mode:multiply" d="M983.914 1866.2C990.994 1843.95 1028.76 1856.96 1097.02 1910.97C1246.6 2029.36 1485.93 2299.77 1631.55 2514.97C1710.24 2631.26 1745.47 2707.62 1737.64 2734.56L983.914 1866.2Z" fill="url(#paint1_radial_1_1771)"/>
<path style="mix-blend-mode:multiply" d="M742.172 1596.81C705.643 1720.24 623.346 1791.46 500.693 1784.25C231.882 1768.43 -128.866 1381.78 -305.059 920.571C-400.287 671.377 -422.113 451.431 -379.64 304.377L742.172 1596.81Z" fill="url(#paint2_radial_1_1771)"/>
<path style="mix-blend-mode:multiply" d="M558.104 1384.82C545.732 1425.47 502.645 1430.9 430.092 1391.87C271.086 1306.2 30.8193 1039.01 -106.52 795.053C-180.745 663.237 -209.733 565.19 -195.606 516.391L558.104 1384.82Z" fill="url(#paint3_radial_1_1771)"/>
<path style="mix-blend-mode:multiply" d="M2192.21 1426.93C2214.58 1345.74 2191.36 1211.76 2116.41 1038.81C1952.16 659.749 1601.7 237.301 1333.66 95.2384C1188.8 18.4418 1097.66 39.2866 1070.39 134.449L2192.21 1426.93Z" fill="url(#paint4_radial_1_1771)"/>
<path style="mix-blend-mode:multiply" d="M2008.18 1214.85C2015.35 1187.64 1991.87 1124.98 1935.15 1030.88C1810.84 824.631 1574.01 545.596 1406.17 407.592C1315.47 332.99 1263.48 314.866 1254.46 346.484L2008.18 1214.85Z" fill="url(#paint5_radial_1_1771)"/>
<path style="mix-blend-mode:multiply" d="M1442.73 1290.61C1465.08 1209.43 1441.86 1075.45 1366.93 902.492C1202.67 523.434 852.211 100.987 584.163 -41.076C439.305 -117.873 348.168 -97.0278 320.896 -1.86584L1442.73 1290.61Z" fill="url(#paint6_radial_1_1771)"/>
<path style="mix-blend-mode:multiply" d="M1258.67 1078.53C1265.84 1051.32 1242.36 988.668 1185.64 894.57C1061.34 688.316 824.496 409.281 656.666 271.278C565.962 196.675 513.974 178.551 504.953 210.169L1258.67 1078.53Z" fill="url(#paint7_radial_1_1771)"/>
<path style="mix-blend-mode:multiply" d="M124.227 2066.87C108.373 2008.58 130.687 1906.32 195.737 1769.84C338.314 1470.73 632.169 1120.67 852.08 987.922C970.922 916.194 1043.84 922.623 1063.28 990.873L124.227 2066.87Z" fill="url(#paint8_radial_1_1771)"/>
<path style="mix-blend-mode:multiply" d="M278.287 1890.33C273.242 1870.74 293.851 1821.67 342.093 1745.83C447.834 1579.63 646.253 1347.84 785.259 1228.19C860.389 1163.46 902.785 1144.81 909.196 1167.46L278.287 1890.33Z" fill="url(#paint9_radial_1_1771)"/>
<path style="mix-blend-mode:multiply" d="M753.605 1704.24C737.75 1645.95 760.059 1543.69 825.109 1407.21C967.691 1108.1 1261.55 758.048 1481.46 625.321C1600.3 553.593 1673.22 560.022 1692.65 628.283L753.605 1704.24Z" fill="url(#paint10_radial_1_1771)"/>
<path style="mix-blend-mode:multiply" d="M907.67 1527.69C902.619 1508.11 923.227 1459.04 971.469 1383.19C1077.22 1217 1275.64 985.201 1414.64 865.519C1489.77 800.791 1532.16 782.14 1538.58 804.806L907.67 1527.69Z" fill="url(#paint11_radial_1_1771)"/>
<path style="mix-blend-mode:multiply" d="M-16.6495 386.517C-32.5035 328.228 -10.1949 225.968 54.8608 89.4894C197.443 -209.623 491.298 -559.673 711.209 -692.4C830.051 -764.128 902.965 -757.699 922.4 -689.437L-16.6495 386.517Z" fill="url(#paint12_radial_1_1771)"/>
<path style="mix-blend-mode:multiply" d="M137.416 209.973C132.365 190.39 152.973 141.316 201.221 65.4742C306.962 -100.725 505.359 -332.519 644.387 -452.201C719.517 -516.93 761.908 -535.58 768.324 -512.914L137.416 209.973Z" fill="url(#paint13_radial_1_1771)"/>
<path style="mix-blend-mode:multiply" d="M563.308 824.345C547.454 766.057 569.762 663.796 634.818 527.318C777.4 228.205 1071.26 -121.845 1291.17 -254.571C1410.01 -326.3 1482.92 -319.871 1502.36 -251.609L563.308 824.345Z" fill="url(#paint14_radial_1_1771)"/>
<path style="mix-blend-mode:multiply" d="M717.373 647.823C712.322 628.24 732.931 579.167 781.178 503.325C886.919 337.126 1085.34 105.332 1224.34 -14.3505C1299.47 -79.0791 1341.86 -97.7298 1348.28 -75.0638L717.373 647.823Z" fill="url(#paint15_radial_1_1771)"/>
<path style="mix-blend-mode:multiply" d="M-458.604 2366.97C-474.458 2308.69 -452.133 2206.42 -387.099 2069.95C-244.517 1770.84 49.3438 1420.78 269.249 1288.07C388.091 1216.33 461.01 1222.77 480.445 1291.02L-458.604 2366.97Z" fill="url(#paint16_radial_1_1771)"/>
<path style="mix-blend-mode:multiply" d="M-304.539 2190.43C-309.59 2170.85 -288.982 2121.78 -240.74 2045.94C-134.993 1879.73 63.426 1647.95 202.432 1528.26C277.562 1463.54 319.953 1444.88 326.369 1467.54L-304.539 2190.43Z" fill="url(#paint17_radial_1_1771)"/>
<path style="mix-blend-mode:multiply" d="M1255.56 713.78C1276.09 645.892 1342.37 630.401 1452.06 682.546C1692.51 796.962 2050.46 1193.35 2251.59 1567.9C2360.27 1770.3 2400.91 1924.92 2377.39 2006.23L1255.56 713.78Z" fill="url(#paint18_radial_1_1771)"/>
<path style="mix-blend-mode:multiply" d="M1439.59 925.838C1446.66 903.6 1484.44 916.611 1552.68 970.61C1702.29 1089 1941.6 1359.41 2087.23 1574.61C2165.92 1690.9 2201.15 1767.26 2193.3 1794.2L1439.59 925.838Z" fill="url(#paint19_radial_1_1771)"/>
<path style="mix-blend-mode:multiply" d="M476.93 924.521C494.029 867.988 549.224 855.053 640.57 898.52C840.793 993.781 1138.88 1323.89 1306.37 1635.77C1396.86 1804.33 1430.71 1933.08 1411.12 2000.78L476.93 924.521Z" fill="url(#paint20_radial_1_1771)"/>
<path style="mix-blend-mode:multiply" d="M630.201 1101.11C636.085 1082.59 667.547 1093.43 724.376 1138.41C848.955 1236.96 1048.27 1462.17 1169.52 1641.36C1235.05 1738.2 1264.39 1801.79 1257.85 1824.24L630.201 1101.11Z" fill="url(#paint21_radial_1_1771)"/>
<path style="mix-blend-mode:multiply" d="M-33.0859 -40.1221C-12.5377 -108.032 53.73 -123.567 163.436 -71.3783C403.878 43.0597 761.819 439.429 962.953 813.978C1071.63 1016.45 1112.28 1171.03 1088.75 1252.32L-33.0859 -40.1221Z" fill="url(#paint22_radial_1_1771)"/>
<path style="mix-blend-mode:multiply" d="M150.982 171.914C158.051 149.676 195.819 162.71 264.083 216.72C413.662 335.096 652.986 605.486 798.611 820.704C877.311 936.996 912.54 1013.32 904.709 1040.29L150.982 171.914Z" fill="url(#paint23_radial_1_1771)"/>
<path style="mix-blend-mode:multiply" d="M-221.145 1591.32C-200.596 1523.41 -134.329 1507.88 -24.6228 1560.09C215.809 1674.5 573.76 2070.9 774.889 2445.46C883.58 2647.83 924.221 2802.46 900.695 2883.79L-221.145 1591.32Z" fill="url(#paint24_radial_1_1771)"/>
<path style="mix-blend-mode:multiply" d="M-37.082 1803.37C-30.0133 1781.13 7.76547 1794.14 76.0128 1848.17C225.603 1966.53 464.921 2236.95 610.552 2452.14C689.252 2568.43 724.475 2644.79 716.633 2671.73L-37.082 1803.37Z" fill="url(#paint25_radial_1_1771)"/>
<g style="mix-blend-mode:overlay">
<path d="M1917.24 2030.16H-3V0.536499H1917.24V2030.16Z" fill="#AECFF0"/>
<path d="M1422.37 117.925C1412.25 92.151 1401.9 66.9872 1391.32 42.4342C1386.03 30.1541 1380.7 18.0312 1375.31 6.06555C1373.96 3.08154 1372.61 0.101074 1371.25 -2.87573V-0.560913H19.1946V-7.88953C17.1874 -2.13342 15.2023 3.64465 13.239 9.44458C9.31253 21.0446 5.47379 32.7469 1.72279 44.5516C-0.160025 50.454 -2.0209 56.3783 -3.85984 62.3246H-3.54726V1891.59H-6.0918C-5.16684 1895.06 -4.23458 1898.52 -3.295 1901.98C-1.41219 1908.89 0.487078 1915.78 2.40279 1922.65C6.24885 1936.43 10.179 1950.17 14.1932 1963.84C18.2074 1977.52 22.3094 1991.15 26.4991 2004.74C28.594 2011.54 30.7108 2018.31 32.8495 2025.05C33.917 2028.42 34.9919 2031.79 36.0741 2035.17V2031.26H1579.49V2035.27C1580.83 2028.81 1582.16 2022.33 1583.46 2015.85C1586.07 2002.85 1588.6 1989.78 1591.03 1976.65C1600.82 1923.95 1609.27 1870.29 1616.34 1815.88C1630.61 1705.64 1639.5 1592.9 1642.87 1479.22C1656.75 1020.31 1584.34 530.28 1422.37 117.925Z" fill="#B8BEC5"/>
<path d="M1412.89 132.813C1402.91 107.419 1392.71 82.6178 1382.29 58.4086C1377.08 46.304 1371.81 34.3566 1366.5 22.5664C1363.84 16.6641 1361.18 10.8129 1358.49 5.01294C1357.15 2.0874 1355.81 -0.812622 1354.46 -3.68701V-0.560303H35.7546V-8.11926C27.6823 14.3492 19.9372 37.2201 12.5193 60.493C8.80848 72.1223 5.17995 83.8466 1.63369 95.6659C-0.143103 101.568 -1.89796 107.496 -3.63088 113.45H-3.54862V1840H-5.88477C-5.01465 1843.45 -4.13722 1846.89 -3.25248 1850.32C-1.48666 1857.18 0.301094 1864.04 2.11079 1870.89C16.5701 1925.64 32.4021 1979.55 49.607 2032.61V2031.26H1565.76V2032.36C1566.44 2029.17 1567.11 2026 1567.77 2022.82C1569.09 2016.45 1570.39 2010.07 1571.68 2003.67C1574.24 1990.87 1576.73 1977.99 1579.15 1965.04C1588.8 1913.09 1597.12 1860.2 1604.09 1806.56C1618.16 1697.9 1626.92 1586.76 1630.25 1474.71C1643.92 1022.31 1572.56 539.287 1412.89 132.813Z" fill="#B9BFC6"/>
<path d="M1403.42 147.711C1383.75 97.6399 1363.22 49.9454 1341.83 4.62817C1340.5 1.79761 1339.16 -1.02551 1337.82 -3.84143V-0.550171H52.2624V-7.70325C50.2333 -2.21777 48.2226 3.29346 46.2301 8.83008C38.2711 30.9622 30.6356 53.4965 23.3238 76.4331C16.0119 99.3698 9.02535 122.657 2.36421 146.296C0.693446 152.213 -0.95173 158.148 -2.57131 164.102C-3.38293 167.086 -4.21649 170.059 -5.00069 173.054H-3.54745V1779.1H-7.29297C-0.836567 1806.44 5.95435 1833.61 13.0798 1860.6C27.338 1914.56 42.9434 1967.69 59.896 2019.98C60.9562 2023.24 62.0201 2026.49 63.0877 2029.76L64.6999 2034.64V2031.26H1550.05V2038.39C1550.73 2035.27 1551.41 2032.16 1552.09 2029.04C1557.47 2004.1 1562.54 1978.86 1567.28 1953.34C1576.79 1902.15 1584.99 1850.03 1591.86 1797.17C1605.73 1690.09 1614.36 1580.56 1617.64 1470.13C1631.1 1024.31 1560.77 548.283 1403.42 147.711Z" fill="#BAC0C6"/>
<path d="M1393.95 162.61C1374.57 113.277 1354.34 66.2812 1333.26 21.6222C1330.64 16.049 1327.99 10.5085 1325.34 5.00122C1324.01 2.24377 1322.68 -0.502441 1321.34 -3.23792V-0.561035H68.7075V-6.67188C64.6348 4.03589 60.6388 14.8458 56.7196 25.7583C48.8849 47.5831 41.3647 69.7883 34.1588 92.3739C19.7654 137.51 6.59774 184.163 -5.28703 232.133H-3.54863V1729.48H-5.31445C-2.30927 1743.03 0.78732 1756.54 3.9753 1770.01C10.3366 1796.94 17.0289 1823.7 24.0519 1850.3C38.0981 1903.47 53.4732 1955.82 70.1772 2007.34C72.2611 2013.78 74.3742 2020.19 76.5166 2026.59C77.5841 2029.79 78.6553 2032.99 79.7301 2036.17V2031.26H1536.36V2034.65C1537.73 2028.55 1539.08 2022.42 1540.4 2016.27C1545.71 1991.7 1550.71 1966.83 1555.38 1941.67C1564.75 1891.23 1572.83 1839.87 1579.6 1787.79C1593.26 1682.28 1601.77 1574.37 1604.99 1465.56C1618.28 1026.32 1548.98 557.29 1393.95 162.61Z" fill="#BBC1C7"/>
<path d="M1384.47 177.509C1365.38 128.908 1345.46 82.6138 1324.7 38.6276C1319.51 27.6566 1314.28 16.8101 1309.01 6.08777C1307.69 3.41089 1306.37 0.741211 1305.04 -1.92102V-0.560669H85.0895V-4.94897C83.0458 0.273193 81.0204 5.52087 79.0133 10.7943C74.9918 21.3409 71.0562 31.9901 67.2064 42.7417C59.4851 64.2301 52.0763 86.1025 44.9801 108.359C30.8053 152.825 17.8354 198.782 6.12654 246.033C3.20179 257.838 0.351975 269.72 -2.42289 281.678C-3.80484 287.654 -5.17033 293.651 -6.51938 299.67H-3.54709V1660.7H-6.7168C-5.35678 1667.43 -3.97301 1674.14 -2.56547 1680.85C8.66194 1734.53 21.1909 1787.58 35.0213 1840C48.8518 1892.42 63.9983 1943.99 80.4611 1994.69C84.574 2007.37 88.7692 2019.98 93.0467 2032.53V2031.26H1521.71V2035.11L1522.73 2030.62C1523.42 2027.62 1524.09 2024.61 1524.77 2021.61C1526.11 2015.59 1527.44 2009.56 1528.75 2003.5C1533.98 1979.29 1538.89 1954.78 1543.5 1930C1552.73 1880.31 1560.69 1829.72 1567.35 1778.42C1580.82 1674.49 1589.19 1568.18 1592.37 1461C1605.43 1028.33 1537.19 566.297 1384.47 177.509Z" fill="#BBC2C8"/>
<path d="M1374.99 192.397C1356.19 144.542 1336.57 98.9498 1316.12 55.6219C1305.92 33.9727 1295.52 12.8937 1284.95 -7.61462V-0.560303H101.403V-2.6886C68.7528 78.4553 40.6291 166.489 17.5317 259.846C11.77 283.097 6.31164 306.648 1.15676 330.499C-1.40241 342.428 -3.89942 354.423 -6.33428 366.484H-3.54845V1593.32H-6.65234C-1.76434 1619.99 3.44355 1646.54 8.97134 1672.97C20.0269 1725.81 32.3676 1778.06 45.9933 1829.71C59.619 1881.36 74.5352 1932.15 90.7421 1982.07C94.7965 1994.54 98.9296 2006.98 103.141 2019.37C105.247 2025.53 107.373 2031.68 109.519 2037.84V2031.26H1507.07V2035.1C1507.76 2032.17 1508.45 2029.25 1509.13 2026.32C1511.86 2014.55 1514.51 2002.7 1517.08 1990.78C1522.24 1966.93 1527.08 1942.79 1531.61 1918.37C1540.7 1869.42 1548.54 1819.59 1555.11 1769.05C1568.36 1666.7 1576.62 1562 1579.75 1456.45C1592.63 1030.33 1525.4 575.305 1374.99 192.397Z" fill="#BCC2C9"/>
<path d="M1365.52 207.295C1347.01 160.171 1327.69 115.282 1307.56 72.6266C1297.5 51.3136 1287.27 30.5603 1276.85 10.3665C1274.25 5.31982 1271.64 0.30603 1269.01 -4.67468V-0.560669H120.739V-7.14319C119.705 -4.67834 118.672 -2.20264 117.641 0.28418C115.579 5.25037 113.539 10.2422 111.521 15.2595C79.376 95.1423 51.6863 181.807 28.944 273.713C17.5824 319.557 7.4269 366.559 -1.48075 414.525C-2.59947 420.537 -3.69625 426.56 -4.7711 432.594H-3.54818V1527.42H-5.19336C-4.09658 1534 -2.99065 1540.58 -1.87559 1547.17C0.372818 1560.33 2.69983 1573.5 5.10544 1586.66C9.9386 1612.91 15.0734 1639.06 20.5098 1665.09C31.4008 1717.12 43.5532 1768.57 56.9669 1819.42C70.3805 1870.28 85.0665 1920.28 101.025 1969.43C105.013 1981.71 109.091 1993.94 113.259 2006.11C115.332 2012.21 117.427 2018.28 119.544 2024.33C120.597 2027.35 121.659 2030.38 122.73 2033.4V2031.2H1491.42V2038.94C1492.12 2036.08 1492.81 2033.2 1493.5 2030.32C1494.88 2024.55 1496.25 2018.77 1497.59 2012.98C1500.28 2001.39 1502.89 1989.72 1505.42 1977.97C1510.5 1954.5 1515.27 1930.73 1519.73 1906.66C1528.67 1858.47 1536.4 1809.41 1542.86 1759.65C1555.91 1658.87 1564.04 1555.78 1567.12 1451.85C1579.81 1032.33 1513.61 584.312 1365.52 207.295Z" fill="#BDC3C9"/>
<path d="M1356.04 222.15C1337.82 175.757 1318.81 131.566 1299.01 89.5768C1289.12 68.5857 1279.04 48.1577 1268.79 28.2931C1263.67 18.3534 1258.51 8.55627 1253.3 -1.09814V-0.560669H136.901V-3.45691C135.862 -1.05066 134.828 1.36292 133.797 3.78381C129.666 13.4456 125.613 23.2172 121.639 33.0983C89.9973 111.751 62.7399 197.076 40.3508 287.558C29.1657 332.698 19.1694 378.979 10.4031 426.209C6.00501 449.833 1.90304 473.714 -1.9028 497.85C-3.80024 509.903 -5.62821 522.019 -7.38672 534.197H-3.54798V1443.47H-5.12186C-4.20422 1450.01 -3.27195 1456.54 -2.32506 1463.06C-0.416658 1476.12 1.56669 1489.16 3.62499 1502.17C20.4225 1608.14 41.9457 1710.87 67.9349 1809.13C81.1475 1859.12 95.6049 1908.34 111.307 1956.79C119.16 1980.98 127.328 2004.93 135.809 2028.66C136.873 2031.63 137.937 2034.55 139.034 2037.55V2031.26H1477.89V2033.67C1522.59 1853.4 1548.25 1653.88 1554.5 1447.36C1566.99 1034.34 1501.82 593.308 1356.04 222.15Z" fill="#BEC4CA"/>
<path d="M1346.59 237.092C1328.68 191.431 1309.96 147.942 1290.44 106.626C1280.71 85.9637 1270.8 65.8503 1260.7 46.2855C1255.66 36.5067 1250.58 26.8669 1245.45 17.3661C1242.89 12.6194 1240.32 7.90186 1237.73 3.2135C1236.45 0.873047 1235.15 -1.45642 1233.85 -3.7749V-0.560425H156.117V-6.11169C147.709 12.517 139.589 31.5553 131.758 51.0031C100.616 128.402 73.7919 212.375 51.7638 301.426C29.7277 390.553 12.3397 483.985 -0.12502 580.242C-1.69708 592.317 -3.19601 604.451 -4.62183 616.643H-3.52505V1342.28H-5.06055C0.620793 1393.96 7.52322 1445.45 15.6467 1496.75C32.1673 1601.04 53.34 1702.13 78.9092 1798.83C91.9061 1848.04 106.133 1896.48 121.591 1944.15C129.323 1967.96 137.366 1991.53 145.72 2014.88C147.807 2020.73 149.915 2026.55 152.043 2032.35V2031.25H1462.3V2036.39C1463.72 2030.89 1465.11 2025.36 1466.48 2019.82C1510.48 1842.39 1535.73 1646.05 1541.87 1442.81C1554.17 1036.34 1490.03 602.315 1346.59 237.092Z" fill="#BFC5CB"/>
<path d="M1337.09 251.98C1302.57 164.005 1264.17 82.4216 1222.34 8.21619C1219.78 3.67419 1217.21 -0.831055 1214.63 -5.29993V-0.560547H172.102V-0.966431C169.996 3.56091 167.911 8.11743 165.845 12.7032C157.572 31.0394 149.582 49.7706 141.875 68.8966C111.235 145.049 84.8439 227.667 63.1696 315.282C41.492 402.959 24.3852 494.868 12.1198 589.556C5.93398 637.177 0.910712 685.49 -2.94997 734.493C-3.91514 746.737 -4.80536 759.013 -5.62063 771.323H-3.54771V1186.5H-5.92773C0.623807 1289.93 11.8478 1391.96 27.6064 1491.34C43.8734 1593.93 64.7137 1693.4 89.8763 1788.54C102.672 1836.94 116.671 1884.6 131.872 1931.51C139.48 1954.92 147.39 1978.12 155.601 2001.11C159.703 2012.59 163.885 2024.01 168.148 2035.37V2031.26H1446.75V2038.47C1449.59 2027.7 1452.37 2016.87 1455.08 2005.96C1498.35 1831.4 1523.2 1638.21 1529.25 1438.26C1541.34 1038.39 1478.25 611.322 1337.09 251.98Z" fill="#C0C6CC"/>
<path d="M1327.62 266.878C1293.67 180.332 1255.89 100.078 1214.74 27.0854C1209.71 18.155 1204.63 9.3783 1199.52 0.755127C1198.24 -1.43909 1196.96 -3.5929 1195.68 -5.70667V-0.561279H191.159V-1.81201C190.095 0.382202 189.038 2.57629 187.989 4.77051C183.777 13.5472 179.637 22.463 175.568 31.5177C167.43 49.5393 159.569 67.9596 151.987 86.7784C121.848 161.683 95.8866 242.948 74.565 329.127C31.9933 500.822 7.557 690.839 1.62888 887.548C-4.29924 1084.26 8.20958 1287.57 39.605 1485.93C55.6016 1586.84 76.0988 1684.67 100.849 1778.25C113.43 1825.86 127.198 1872.74 142.154 1918.87C149.634 1941.91 157.414 1964.73 165.494 1987.33C169.515 1998.62 173.628 2009.85 177.833 2021.02C179.928 2026.62 182.041 2032.19 184.172 2037.74V2031.26H1433.35V2031.99C1434.07 2029.36 1434.77 2026.72 1435.47 2024.07C1438.27 2013.5 1441 2002.85 1443.66 1992.1C1486.24 1820.41 1510.67 1630.39 1516.59 1433.68C1528.52 1040.35 1466.45 620.329 1327.62 266.878Z" fill="#C1C7CC"/>
<path d="M1317.9 280.874C1284.52 195.768 1247.37 116.85 1206.91 45.0752C1197.01 27.5216 1186.95 10.4946 1176.75 -6.00562V-1.46362H209.89V-2.56079C192.902 31.0527 176.873 66.5525 161.878 103.77C132.244 177.428 106.716 257.339 85.7506 342.081C43.8864 510.88 19.8559 697.77 14.01 891.177C8.16416 1084.58 20.4975 1284.53 51.3555 1479.61C67.0871 1578.84 87.2448 1675.04 111.585 1767.05C123.953 1813.86 137.491 1859.94 152.199 1905.29C159.559 1927.96 167.209 1950.4 175.149 1972.61C179.12 1983.71 183.165 1994.75 187.285 2005.74C189.347 2011.23 191.426 2016.72 193.521 2022.19C194.566 2024.92 195.619 2027.65 196.679 2030.38H1417.65V2032.08C1418.36 2029.5 1419.07 2026.92 1419.77 2024.33C1421.19 2019.16 1422.59 2013.98 1423.96 2008.78C1426.72 1998.38 1429.4 1987.9 1432.02 1977.33C1473.88 1808.5 1497.91 1621.66 1503.76 1428.26C1515.46 1041.45 1454.43 628.433 1317.9 280.874Z" fill="#C2C8CD"/>
<path d="M1308.67 296.676C1275.85 213.013 1239.32 135.432 1199.54 64.8704C1189.8 47.6094 1179.92 30.8713 1169.89 14.6562C1167.38 10.597 1164.87 6.57434 1162.35 2.58813C1161.09 0.591431 1159.82 -1.39429 1158.56 -3.36914V-0.560425H232.261V-6.5835C227.922 1.52771 223.651 9.74121 219.451 18.0573C202.748 51.0979 186.989 85.9971 172.251 122.589C143.119 194.997 118.024 273.549 97.4116 356.851C56.2822 522.82 32.6411 706.506 26.8884 896.622C15.3777 1276.88 75.3663 1682.9 209.574 2024.57C210.627 2027.23 211.675 2029.9 212.733 2032.55V2031.26H1402.45V2033.32L1404.6 2025.77C1410.29 2005.6 1415.71 1985.12 1420.85 1964.34C1461.98 1798.37 1485.62 1614.68 1491.37 1424.57C1502.89 1044.36 1442.88 638.333 1308.67 296.676Z" fill="#C3C9CE"/>
<path d="M1299.2 311.563C1266.93 229.346 1231.04 153.105 1191.95 83.7623C1182.38 66.8013 1172.66 50.3448 1162.81 34.3931C1157.88 26.4136 1152.92 18.573 1147.93 10.8715C1145.44 7.02429 1142.93 3.20264 1140.43 -0.593262H251.038V-4.24658L247.775 1.6228C245.607 5.55774 243.459 9.51819 241.331 13.5043C237.065 21.4766 232.861 29.5476 228.718 37.7173C212.312 70.202 196.833 104.511 182.357 140.482C153.728 211.642 129.067 288.841 108.813 370.708C68.3631 533.824 45.1497 714.34 39.4958 901.186C28.1989 1274.88 87.1565 1673.89 219.05 2009.67C221.112 2014.91 223.185 2020.13 225.269 2025.31C226.311 2027.92 227.362 2030.5 228.422 2033.07V2031.26H1387.06V2033.03C1387.78 2030.58 1388.51 2028.12 1389.22 2025.66C1390.65 2020.75 1392.07 2015.81 1393.46 2010.85C1399.06 1991.03 1404.38 1970.92 1409.44 1950.51C1449.88 1787.42 1473.1 1606.9 1478.76 1420.06C1490.05 1046.36 1431.09 647.34 1299.2 311.563Z" fill="#C4C9CF"/>
<path d="M1289.72 326.462C1258.03 245.685 1222.77 170.781 1184.37 102.654C1165.57 69.3243 1146.22 38.0133 1126.33 8.72083C1123.84 5.06384 1121.35 1.43616 1118.85 -2.16223V-0.560547H269.706V-0.878784C267.512 2.88062 265.337 6.66565 263.18 10.4763C254.537 25.7258 246.158 41.385 238.041 57.4539C221.918 89.364 206.704 123.061 192.47 158.387C164.347 228.286 140.119 304.112 120.214 384.52C80.4829 544.772 57.6972 722.118 52.1256 905.64C41.0206 1272.87 98.9473 1664.83 228.527 1994.77C232.574 2005.08 236.669 2015.27 240.811 2025.34C241.849 2027.85 242.887 2030.36 243.926 2032.86V2031.26H1371.73V2032.12C1372.46 2029.72 1373.19 2027.33 1373.92 2024.93C1376.8 2015.34 1379.61 2005.68 1382.36 1995.93C1387.84 1976.46 1393.08 1956.71 1398.05 1936.69C1437.79 1776.44 1460.57 1599.09 1466.14 1415.57C1477.23 1048.37 1419.3 656.347 1289.72 326.462Z" fill="#C5CAD0"/>
<path d="M1280.24 341.36C1249.11 262.029 1214.49 188.461 1176.77 121.546C1158.3 88.8091 1139.29 58.0574 1119.74 29.2915C1114.86 22.0946 1109.96 15.0294 1105.02 8.0957C1102.55 4.62891 1100.08 1.19128 1097.6 -2.21704V-0.560425H291.553V-1.98669C289.337 1.59717 287.144 5.21399 284.972 8.86365C280.585 16.141 276.28 23.5245 272.058 31.014C263.576 45.993 255.35 61.3743 247.38 77.1578C231.543 108.494 216.6 141.587 202.62 176.28C174.997 244.946 151.202 319.437 131.658 398.431C92.6347 555.81 70.2384 729.995 64.7819 910.281C53.847 1270.86 110.732 1655.89 238.002 1979.88C241.98 1990.01 246.002 2000.01 250.067 2009.9C252.089 2014.84 254.132 2019.76 256.198 2024.68C257.225 2027.11 258.256 2029.54 259.291 2031.97V2031.26H1354.27V2037.54C1366.08 2000.48 1376.88 1962.19 1386.63 1922.81C1425.65 1765.42 1448.05 1591.25 1453.53 1410.95C1464.4 1050.37 1407.51 665.376 1280.24 341.36Z" fill="#C6CBD0"/>
<path d="M1270.77 356.248C1240.21 278.361 1206.21 206.134 1169.18 140.438C1151.05 108.293 1132.39 78.101 1113.21 49.8617C1103.63 35.7385 1093.94 22.1125 1084.14 8.98401C1081.69 5.69263 1079.24 2.43811 1076.77 -0.780029V-0.560669H313.28V-1.65784C311.053 1.72852 308.836 5.16248 306.628 8.64392C24.0522 452.902 -2.45157 1328.78 247.473 1964.98C255.282 1984.86 263.266 2004.27 271.426 2023.22C273.466 2027.95 275.515 2032.65 277.574 2037.33V2031.26H1339.02V2035.19C1340.48 2030.67 1341.94 2026.14 1343.41 2021.59C1355.01 1985.21 1365.63 1947.61 1375.21 1908.96C1413.53 1754.43 1435.54 1583.41 1440.87 1406.4C1451.58 1052.38 1395.72 674.361 1270.77 356.248Z" fill="#C7CCD1"/>
<path d="M1261.3 371.146C1199.97 215.041 1127.49 88.4138 1048.96 -6.90173V-0.560547H338.1V-4.45532L334.766 0.306152C332.547 3.50244 330.335 6.73145 328.13 9.99353C323.743 16.5103 319.374 23.1769 315.024 29.9935C37.669 466.012 11.6752 1325.66 256.938 1950.07C264.615 1969.59 272.452 1988.64 280.448 2007.23C284.469 2016.53 288.511 2025.71 292.572 2034.77V2031.26H1323.86V2032.23C1326.84 2023.45 1329.75 2014.59 1332.6 2005.64C1343.98 1969.94 1354.4 1933.03 1363.8 1895.09C1401.43 1743.43 1422.99 1575.58 1428.25 1401.85C1438.76 1054.38 1383.93 683.358 1261.3 371.146Z" fill="#C8CDD2"/>
<path d="M1251.82 386.045C1191.65 232.879 1120.56 108.644 1043.49 15.1281C1038.68 9.27686 1033.84 3.55371 1028.97 -2.0415V-0.560425H362.569V-5.0365C358.116 0.814575 353.696 6.79749 349.308 12.9119C340.534 25.1555 331.893 37.955 323.386 51.3102C51.2904 479.111 25.7737 1322.54 266.425 1935.19C273.945 1954.34 281.633 1973.04 289.49 1991.27C293.416 2000.38 297.381 2009.38 301.385 2018.28C303.392 2022.72 305.402 2027.14 307.417 2031.53V2031.26H1306.56V2035.04C1307.31 2032.92 1308.06 2030.78 1308.81 2028.65C1310.3 2024.38 1311.77 2020.09 1313.23 2015.78C1316.15 2007.16 1319.01 1998.46 1321.8 1989.7C1332.97 1954.67 1343.19 1918.46 1352.42 1881.23C1389.31 1732.43 1410.49 1567.76 1415.65 1397.29C1425.93 1056.38 1372.14 692.365 1251.82 386.045Z" fill="#C9CED3"/>
<path d="M1242.34 400.976C1183.34 250.762 1113.6 128.896 1038.02 37.1903C1028.58 25.7219 1019.05 14.729 1009.42 4.21155C1007.01 1.57849 1004.6 -1.02161 1002.19 -3.58887V-0.560791H390.044V-7.47253C387.81 -4.81763 385.589 -2.12598 383.381 0.602173C365.508 22.6473 348.276 46.7051 331.766 72.6593C64.8914 492.221 39.8792 1319.43 275.902 1920.3C290.653 1957.86 306.048 1993.63 322.087 2027.61L325.098 2033.96V2031.26H1289.27V2036.87C1290.79 2032.75 1292.3 2028.62 1293.79 2024.47C1299.74 2007.86 1305.46 1990.96 1310.95 1973.76C1321.9 1939.39 1331.93 1903.87 1340.97 1867.34C1377.17 1721.43 1397.93 1559.89 1402.98 1392.72C1413.11 1058.39 1360.36 701.372 1242.34 400.976Z" fill="#CACFD4"/>
<path d="M1232.87 415.831C1175.02 268.568 1106.65 149.105 1032.56 59.1873C1014.03 36.7042 995.174 16.0789 975.984 -2.68872V-0.560425H417.123V-7.14307C408.221 2.4895 399.43 12.656 390.751 23.3563C373.225 44.9597 356.329 68.5453 340.146 93.9982C78.5024 505.321 53.9838 1316.32 285.372 1905.4C299.839 1942.22 314.934 1977.29 330.658 2010.61C334.585 2018.94 338.546 2027.15 342.542 2035.26V2031.26H1274.36V2031.73C1277.4 2023.73 1280.38 2015.66 1283.3 2007.53C1289.15 1991.25 1294.76 1974.68 1300.14 1957.81C1310.89 1924.13 1320.72 1889.32 1329.59 1853.53C1365.07 1710.45 1385.43 1552.1 1390.39 1388.21C1400.29 1060.4 1348.57 710.357 1232.87 415.831Z" fill="#CBD0D5"/>
<path d="M1223.4 430.729C1166.7 286.406 1099.71 169.335 1027.07 81.2164C1008.91 59.1868 990.432 38.9746 971.629 20.58C962.237 11.3864 952.779 2.65344 943.255 -5.61865V-0.561035H443.764V-4.13757C441.544 -1.94348 439.331 0.250732 437.123 2.44495C432.714 6.90649 428.326 11.4961 423.961 16.2135C415.234 25.6486 406.619 35.6102 398.115 46.0984C380.942 67.2742 364.385 90.387 348.524 115.325C92.1183 518.431 68.0823 1313.21 294.848 1890.5C309.022 1926.58 323.816 1960.96 339.229 1993.63C343.075 2001.79 346.956 2009.84 350.872 2017.77C352.835 2021.74 354.803 2025.69 356.778 2029.61C357.765 2031.57 358.754 2033.52 359.744 2035.46V2031.26H1254.94V2037.58C1279.55 1976.41 1300.75 1910.04 1318.16 1839.66C1352.93 1699.44 1372.89 1544.27 1377.75 1383.64C1387.46 1062.4 1336.78 719.375 1223.4 430.729Z" fill="#CCD1D5"/>
<path d="M1213.92 445.628C1158.38 304.245 1092.73 189.566 1021.62 103.247C986.577 60.6509 949.674 24.4963 911.367 -4.77319V-0.560425H476.558V-4.29053C474.335 -2.42554 472.122 -0.527466 469.917 1.40344C465.504 5.26514 461.117 9.25122 456.756 13.3617C421.265 46.7842 387.783 88.1453 356.948 136.653C105.73 531.531 82.1876 1310.1 304.325 1875.6C318.217 1910.95 332.708 1944.62 347.796 1976.61C355.338 1992.59 363.015 2008.16 370.828 2023.31C372.773 2027.09 374.731 2030.84 376.701 2034.55V2031.26H1237.91V2036.48L1240.24 2030.91C1241.78 2027.18 1243.31 2023.43 1244.82 2019.67C1268.93 1959.76 1289.7 1894.75 1306.76 1825.81C1340.82 1688.45 1360.36 1536.44 1365.12 1379.09C1374.64 1064.4 1324.99 728.382 1213.92 445.628Z" fill="#CDD2D6"/>
<path d="M1204.44 460.527C1150.06 322.084 1085.8 209.796 1016.15 125.276C981.834 83.5654 945.7 48.1637 908.191 19.5054C898.953 12.462 889.668 5.87939 880.338 -0.24231C878.002 -1.77832 875.672 -3.28137 873.33 -4.76245V-0.560547H515.417V-5.12451C497.581 7.07422 480.093 21.2262 463.034 37.2672C428.275 69.9725 395.482 110.458 365.283 157.948C119.341 544.597 96.2917 1306.94 313.8 1860.64C327.393 1895.24 341.582 1928.21 356.367 1959.53C363.748 1975.2 371.261 1990.44 378.905 2005.26C382.73 2012.67 386.585 2019.99 390.471 2027.2C392.412 2030.81 394.363 2034.39 396.322 2037.93V2031.26H1220.98V2034.42C1222.55 2030.85 1224.1 2027.26 1225.63 2023.66C1228.72 2016.44 1231.74 2009.15 1234.7 2001.78C1258.31 1943.12 1278.65 1879.48 1295.35 1811.98C1328.7 1677.49 1347.84 1528.65 1352.5 1374.58C1361.82 1066.41 1313.2 737.389 1204.44 460.527Z" fill="#CED2D7"/>
<path d="M1194.97 475.414C1141.77 339.933 1078.85 230.026 1010.68 147.295C977.096 106.479 941.732 71.8335 905.022 43.7837C886.936 30.0042 868.682 17.9727 850.26 7.68921C841.058 2.56946 831.828 -2.1189 822.571 -6.37561V-0.560913H560.199V-3.85229C555.753 -1.60681 551.32 0.766479 546.9 3.26782C538.06 8.26331 529.286 13.7488 520.578 19.7244C467.461 56.001 417.79 109.974 373.663 179.363C132.952 557.751 110.391 1303.89 323.294 1845.85C349.318 1912.19 378.275 1973.71 409.813 2029.66C410.779 2031.37 411.746 2033.08 412.714 2034.78V2031.26H1201.82V2036.57C1203.4 2033.15 1204.98 2029.71 1206.53 2026.26C1212.77 2012.43 1218.81 1998.31 1224.63 1983.89C1247.73 1926.46 1267.64 1864.15 1283.98 1798.08C1316.62 1666.43 1335.36 1520.78 1339.92 1369.99C1348.99 1068.42 1301.41 746.396 1194.97 475.414Z" fill="#CFD3D8"/>
<path d="M1185.5 490.312C1081.37 225.232 939.374 60.2511 793.979 7.8429C775.805 1.26025 757.601 -3.52307 739.365 -6.5072V-0.560913H630.783V-2.98547C612.92 1.20911 595.179 7.27332 577.633 15.1824C507.554 46.8007 440.913 108.052 382.044 200.657C146.57 570.85 124.497 1300.75 332.749 1830.94C358.214 1895.84 386.549 1956.03 417.409 2010.77C421.204 2017.47 425.01 2024.06 428.827 2030.56L431.706 2035.41V2031.26H1182.7V2037.35C1184.3 2034.06 1185.9 2030.77 1187.47 2027.47C1190.63 2020.89 1193.74 2014.21 1196.79 2007.42C1202.9 1993.9 1208.79 1980.08 1214.47 1965.96C1237.08 1909.79 1256.56 1848.85 1272.56 1784.23C1304.49 1655.46 1322.82 1512.95 1327.27 1365.43C1336.17 1070.41 1289.62 755.404 1185.5 490.312Z" fill="#D0D4D9"/>
<path d="M1176.04 505.2C1074.23 246.001 935.391 84.7059 793.226 33.4496C722.144 7.82153 650.228 9.7085 581.695 40.6246C513.163 71.5408 448.008 131.486 390.443 221.974C160.201 583.95 138.622 1297.62 342.245 1816.05C367.138 1879.51 394.834 1938.35 424.998 1991.87C432.39 2004.97 439.888 2017.67 447.493 2029.98C448.443 2031.51 449.396 2033.04 450.35 2034.56V2031.27H1163.72V2036.75C1165.34 2033.63 1166.94 2030.49 1168.54 2027.33C1181.21 2002.26 1193.17 1975.79 1204.35 1948.03C1226.45 1893.1 1245.49 1833.5 1261.12 1770.3C1292.34 1644.39 1310.26 1505.05 1314.62 1360.82C1323.35 1072.4 1277.83 764.4 1176.04 505.2Z" fill="#D1D5D9"/>
<path d="M1166.54 520.11C1067.04 266.802 931.361 109.171 792.431 59.0776C653.501 8.98425 511.309 66.4501 398.801 243.324C173.79 597.071 152.699 1294.53 351.699 1801.13C376.032 1863.16 403.105 1920.67 432.593 1972.98C439.817 1985.78 447.143 1998.19 454.572 2010.22C458.29 2016.2 462.032 2022.12 465.798 2027.97C467.677 2030.89 469.565 2033.77 471.463 2036.6V2031.26H1144.89V2034.92C1146.52 2031.95 1148.14 2028.97 1149.75 2025.96C1152.97 2019.95 1156.14 2013.86 1159.25 2007.69C1171.63 1983.2 1183.32 1957.32 1194.24 1930.2C1215.84 1876.51 1234.45 1818.28 1249.73 1756.51C1280.24 1633.46 1297.75 1497.29 1302.01 1356.34C1310.52 1074.43 1266.04 773.407 1166.54 520.11Z" fill="#D2D6DA"/>
<path d="M1157.07 534.997C1059.88 287.591 927.358 133.625 791.653 84.6945C655.948 35.764 517.073 91.8914 407.181 264.618C187.402 610.17 166.805 1291.41 361.177 1786.23C384.94 1846.82 411.385 1903 440.189 1954.09C454.293 1979.1 468.804 2002.58 483.72 2024.55C485.585 2027.29 487.453 2030.01 489.325 2032.71V2031.26H1126.18V2031.74C1127.83 2028.93 1129.46 2026.08 1131.08 2023.22C1137.56 2011.79 1143.85 2000.04 1149.93 1987.99C1162.03 1964.06 1173.44 1938.79 1184.11 1912.29C1205.21 1859.86 1223.38 1802.98 1238.3 1742.66C1268.1 1622.47 1285.21 1489.46 1289.37 1351.78C1297.7 1076.42 1254.25 782.414 1157.07 534.997Z" fill="#D3D7DB"/>
<path d="M1147.6 549.896C1052.73 308.37 923.355 158.068 790.88 110.312C658.405 62.5553 522.837 117.344 415.56 285.99C201.002 623.28 180.909 1288.3 370.647 1771.34C393.849 1830.47 419.663 1885.32 447.778 1935.2C461.547 1959.6 475.713 1982.52 490.279 2003.97C497.55 2014.69 504.908 2025.04 512.352 2035.01V2031.26H1102.68V2035.25C1317.23 1697.96 1337.34 1032.9 1147.6 549.896Z" fill="#D4D8DC"/>
<path d="M1138.12 564.794C1045.56 329.16 919.346 182.523 790.106 135.929C660.867 89.3353 528.6 142.786 423.939 307.317C214.629 636.38 195.008 1285.18 380.123 1756.45C402.759 1814.14 427.944 1867.64 455.373 1916.31C468.809 1940.11 482.63 1962.48 496.837 1983.4C503.93 1993.86 511.106 2003.96 518.367 2013.71C521.997 2018.56 525.653 2023.32 529.335 2027.97C531.163 2030.3 533.002 2032.62 534.852 2034.91V2031.26H1079.4V2036.33C1081.08 2033.91 1082.75 2031.48 1084.41 2029.02C1087.73 2024.09 1091.03 2019.06 1094.28 2013.91C1303.61 1684.85 1323.24 1036.05 1138.12 564.794Z" fill="#D5D9DD"/>
<path d="M1128.65 579.693C948.16 120.207 636.426 7.80957 432.326 328.655C228.225 649.501 209.13 1282.03 389.6 1741.55C434.722 1856.42 488.048 1949.59 545.843 2019.74C549.455 2024.13 553.085 2028.42 556.734 2032.62V2031.26H1056.54V2034.86C1059.88 2030.47 1063.19 2025.98 1066.48 2021.4C1073.06 2012.21 1079.54 2002.61 1085.92 1992.59C1290.01 1671.74 1309.13 1039.17 1128.65 579.693Z" fill="#D6DADE"/>
<path d="M1119.17 594.581C943.312 146.878 639.552 37.366 440.705 349.928C241.858 662.491 223.219 1278.95 399.077 1726.65C443.041 1838.56 494.996 1929.36 551.316 1997.71C558.335 2006.25 565.439 2014.43 572.626 2022.27C576.213 2026.2 579.812 2030.03 583.424 2033.77V2031.26H1029.13V2036.83C1032.47 2032.97 1035.79 2029.01 1039.09 2024.94C1052.41 2008.52 1065.24 1990.59 1077.54 1971.25C1276.4 1658.64 1295.05 1042.28 1119.17 594.581Z" fill="#D7DBDF"/>
<path d="M1109.69 609.424C938.462 173.559 642.698 66.9326 449.083 371.355C255.468 675.777 237.316 1275.83 408.546 1711.75C451.359 1820.74 501.948 1909.13 556.782 1975.68C570.488 1992.31 584.442 2007.57 598.646 2021.46C602.188 2024.94 605.747 2028.32 609.323 2031.62V2031.26H1002.26V2035.15C1005.6 2031.79 1008.91 2028.32 1012.2 2024.75C1018.78 2017.63 1025.29 2010.11 1031.72 2002.2C1044.68 1986.21 1057.19 1968.76 1069.16 1949.92C1262.78 1645.53 1280.93 1045.4 1109.69 609.424Z" fill="#D8DCDF"/>
<path d="M1100.22 624.378C933.616 200.241 645.842 96.4884 457.463 392.649C269.085 688.81 251.422 1272.73 418.023 1696.87C459.701 1802.9 508.897 1888.86 562.25 1953.65C588.535 1985.59 616.212 2012.71 644.942 2034.66V2031.26H966.042V2038.42C972.733 2033.01 979.355 2027.22 985.91 2021.06C1012.54 1996 1037.65 1964.98 1060.78 1928.58C1249.17 1632.43 1266.82 1048.51 1100.22 624.378Z" fill="#D9DDE0"/>
<path d="M1090.75 639.265C928.767 226.911 648.988 126.044 465.842 413.977C282.695 701.909 265.525 1269.61 427.487 1681.97C467.98 1785.09 515.839 1868.68 567.706 1931.62C593.262 1962.69 620.174 1989.06 648.111 2010.41C661.872 2020.9 675.764 2030.05 689.789 2037.84V2031.26H930.642V2035.24C933.98 2033.16 937.303 2030.99 940.612 2028.73C953.896 2019.64 966.92 2009.1 979.625 1997.15C1005.51 1972.81 1029.92 1942.66 1052.4 1907.29C1235.55 1619.32 1252.72 1051.63 1090.75 639.265Z" fill="#DADEE1"/>
<path d="M1081.27 654.164C923.926 253.592 652.137 155.611 474.2 435.315C296.264 715.02 279.625 1266.5 436.975 1667.02C515.648 1867.35 622.93 1991.99 732.783 2031.6V2031.26H876.265V2033.97C882.962 2031.67 889.622 2029.04 896.243 2026.06C949.201 2002.16 999.543 1955.85 1044.02 1885.93C1221.94 1606.21 1238.62 1054.74 1081.27 654.164Z" fill="#DBDFE2"/>
<path d="M1071.79 669.062C919.077 280.295 655.284 185.166 482.601 456.642C309.918 728.119 293.729 1263.38 446.451 1652.17C522.809 1846.57 626.938 1967.54 733.562 2006.03C786.871 2025.25 840.805 2023.83 892.206 2000.65C943.607 1977.47 992.474 1932.5 1035.64 1864.61C1208.33 1593.11 1224.52 1057.85 1071.79 669.062Z" fill="#DCE0E3"/>
<path d="M1062.32 683.961C914.23 306.944 658.433 214.722 490.981 477.981C323.53 741.24 307.818 1260.21 455.923 1637.28C529.972 1825.78 630.942 1943.1 734.336 1980.37C837.729 2017.63 943.542 1974.88 1027.26 1843.23C1194.72 1580 1210.41 1060.97 1062.32 683.961Z" fill="#DDE1E4"/>
<path d="M1052.85 698.848C909.383 333.625 661.576 244.289 499.361 499.309C337.147 754.328 321.935 1257.15 465.399 1622.38C537.134 1804.99 634.951 1918.6 735.109 1954.75C835.268 1990.9 937.779 1949.44 1018.89 1821.92C1181.11 1566.9 1196.33 1064.08 1052.85 698.848Z" fill="#DFE2E5"/>
<path d="M1043.37 713.747C904.534 360.296 664.722 273.812 507.74 520.658C350.757 767.505 336.038 1254.06 474.875 1607.5C544.296 1784.22 638.953 1894.19 735.882 1929.13C832.81 1964.07 932.009 1924 1010.51 1800.6C1167.49 1553.79 1182.21 1067.2 1043.37 713.747Z" fill="#E0E2E5"/>
<path d="M1033.89 728.697C1168.1 1070.37 1153.87 1540.75 1002.11 1779.31C850.359 2017.88 618.542 1934.29 484.338 1592.62C350.134 1250.94 364.362 780.568 516.118 542.002C667.874 303.437 899.691 387.023 1033.89 728.697Z" fill="#E1E3E6"/>
<path d="M1024.42 743.589C1154 1073.48 1140.26 1527.64 993.734 1757.98C847.21 1988.32 623.387 1907.62 493.81 1577.73C364.234 1247.83 377.973 793.676 524.497 563.335C671.02 332.995 894.844 413.697 1024.42 743.589Z" fill="#E2E4E7"/>
<path d="M1014.94 758.489C1139.89 1076.6 1126.65 1514.53 985.356 1736.65C844.066 1958.76 628.237 1880.94 503.288 1562.83C378.34 1244.72 391.587 806.78 532.876 584.668C674.166 362.557 889.995 440.379 1014.94 758.489Z" fill="#E3E5E8"/>
<path d="M1005.47 773.38C1125.79 1079.71 1113.03 1501.43 976.977 1715.31C840.92 1929.2 633.084 1854.26 512.763 1547.93C392.442 1241.61 405.199 819.888 541.257 606.001C677.314 392.114 885.15 467.052 1005.47 773.38Z" fill="#E4E6E9"/>
<path d="M995.992 788.28C1111.69 1082.83 1099.42 1488.32 968.597 1693.98C837.773 1899.64 637.932 1827.58 522.239 1533.03C406.546 1238.49 418.811 832.992 549.634 627.334C680.458 421.676 880.299 493.734 995.992 788.28Z" fill="#E5E7EA"/>
<path d="M986.52 803.172C1097.58 1085.94 1085.81 1475.21 960.218 1672.65C834.627 1870.08 642.779 1800.91 531.713 1518.14C420.648 1235.38 432.423 846.101 558.014 648.667C683.606 451.234 875.454 520.408 986.52 803.172Z" fill="#E6E8EB"/>
<path d="M977.045 818.065C1083.48 1089.05 1072.2 1462.11 951.838 1651.31C831.479 1840.52 647.623 1774.23 541.186 1503.25C434.748 1232.27 446.033 859.209 566.393 670C686.752 480.792 870.607 547.082 977.045 818.065Z" fill="#E7E9EB"/>
<path d="M971.798 835.627C1073.96 1096.05 1063.01 1454.39 947.344 1635.99C831.675 1817.6 655.088 1753.71 552.925 1493.28C450.763 1232.86 461.711 874.523 577.38 692.916C693.048 511.308 869.635 575.202 971.798 835.627Z" fill="#E8EAEC"/>
<path d="M958.096 847.856C1055.28 1095.27 1044.97 1435.89 935.081 1608.65C825.188 1781.4 657.32 1720.88 560.138 1473.46C462.956 1226.04 473.26 885.421 583.153 712.666C693.046 539.91 860.913 600.437 958.096 847.856Z" fill="#E9EBED"/>
<path d="M948.617 862.755C1041.17 1098.39 1031.36 1422.79 926.7 1587.32C822.042 1751.84 662.169 1694.2 569.614 1458.56C477.06 1222.92 486.872 898.525 591.531 733.998C696.189 569.472 856.062 627.118 948.617 862.755Z" fill="#EAECEE"/>
<path d="M939.144 877.648C1027.07 1101.5 1017.75 1409.68 918.322 1565.98C818.895 1722.28 667.015 1667.52 579.088 1443.67C491.162 1219.81 500.484 911.634 599.911 755.332C699.337 599.03 851.217 653.793 939.144 877.648Z" fill="#EBEDEF"/>
<path d="M929.667 892.547C1012.97 1104.62 1004.14 1396.58 909.943 1544.65C815.751 1692.72 671.866 1640.84 588.567 1428.77C505.268 1216.69 514.098 924.738 608.29 776.665C702.483 628.592 846.368 680.474 929.667 892.547Z" fill="#ECEEF0"/>
<path d="M920.193 907.439C998.864 1107.73 990.523 1383.47 901.563 1523.32C812.603 1663.17 676.71 1614.17 598.039 1413.88C519.368 1213.58 527.708 937.846 616.669 797.998C705.629 658.149 841.521 707.148 920.193 907.439Z" fill="#EDEFF1"/>
<path d="M910.72 922.332C984.764 1110.84 976.913 1370.36 893.185 1501.98C809.456 1633.61 681.557 1587.49 607.513 1398.98C533.47 1210.47 541.321 950.954 625.049 819.331C708.777 687.707 836.677 733.822 910.72 922.332Z" fill="#EFF0F2"/>
<path d="M901.241 937.231C970.657 1113.96 963.298 1357.26 884.804 1480.65C806.31 1604.05 686.405 1560.81 616.989 1384.08C547.574 1207.36 554.933 964.058 633.427 840.663C711.921 717.268 831.825 760.503 901.241 937.231Z" fill="#F0F1F2"/>
<path d="M891.769 952.123C956.557 1117.07 949.688 1344.15 876.426 1459.32C803.164 1574.49 691.252 1534.14 626.464 1369.19C561.676 1204.25 568.545 977.166 641.807 861.996C715.069 746.826 826.981 787.177 891.769 952.123Z" fill="#F1F2F3"/>
<path d="M882.292 967.022C942.452 1120.19 936.075 1331.04 868.047 1437.98C800.019 1544.93 696.102 1507.46 635.942 1354.29C575.781 1201.13 582.159 990.271 650.187 883.329C718.214 776.387 822.131 813.858 882.292 967.022Z" fill="#F2F3F4"/>
<path d="M872.817 981.915C928.35 1123.3 922.462 1317.94 859.667 1416.65C796.871 1515.37 700.947 1480.78 645.414 1339.4C589.881 1198.02 595.769 1003.38 658.565 904.662C721.361 805.946 817.285 840.533 872.817 981.915Z" fill="#F3F4F5"/>
<path d="M863.345 996.807C914.25 1126.41 908.852 1304.83 851.288 1395.32C793.725 1485.81 705.794 1454.11 654.888 1324.51C603.983 1194.91 609.381 1016.49 666.945 925.995C724.509 835.503 812.44 867.207 863.345 996.807Z" fill="#F4F5F6"/>
<path d="M853.866 1011.71C900.143 1129.52 895.237 1291.72 842.908 1373.99C790.579 1456.25 710.642 1427.43 664.365 1309.61C618.087 1191.79 622.994 1029.59 675.323 947.328C727.652 865.064 807.589 893.888 853.866 1011.71Z" fill="#F5F6F7"/>
<path d="M844.394 1026.6C886.043 1132.64 881.627 1278.62 834.529 1352.65C787.432 1426.69 715.489 1400.75 673.839 1294.72C632.189 1188.68 636.606 1042.7 683.703 968.661C730.8 894.623 802.744 920.562 844.394 1026.6Z" fill="#F6F7F8"/>
<path d="M834.916 1041.5C871.938 1135.75 868.014 1265.51 826.151 1331.32C784.288 1397.13 720.339 1374.07 683.317 1279.82C646.295 1185.56 650.22 1055.8 692.083 989.994C733.946 924.184 797.894 947.243 834.916 1041.5Z" fill="#F7F8F9"/>
<path d="M829 1059.83C861.506 1142.69 858.022 1256.71 821.218 1314.49C784.415 1372.27 728.228 1351.95 695.721 1269.08C663.215 1186.22 666.699 1072.2 703.503 1014.42C740.307 956.635 796.494 976.965 829 1059.83Z" fill="#F8F9FA"/>
<path d="M815.965 1071.29C843.731 1141.98 840.788 1239.3 809.392 1288.65C777.995 1338.01 730.034 1320.72 702.268 1250.02C674.501 1179.33 677.444 1082.02 708.841 1032.66C740.237 983.303 788.199 1000.6 815.965 1071.29Z" fill="#F9FAFB"/>
<path d="M806.491 1086.18C829.629 1145.09 827.176 1226.19 801.012 1267.32C774.847 1308.45 734.879 1294.04 711.74 1235.13C688.601 1176.22 691.054 1095.12 717.219 1053.99C743.384 1012.86 783.352 1027.27 806.491 1086.18Z" fill="#FBFBFB"/>
<path d="M797.018 1101.07C815.529 1148.2 813.566 1213.08 792.633 1245.99C771.701 1278.9 739.725 1267.37 721.214 1220.24C702.703 1173.11 704.667 1108.23 725.599 1075.33C746.532 1042.42 778.507 1053.95 797.018 1101.07Z" fill="#FCFCFC"/>
<path d="M787.535 1115.98C801.418 1151.33 799.947 1199.99 784.249 1224.67C768.55 1249.34 744.57 1240.7 730.687 1205.35C716.803 1170.01 718.275 1121.35 733.973 1096.67C749.671 1071.99 773.652 1080.64 787.535 1115.98Z" fill="#FDFDFD"/>
<path d="M778.067 1130.86C787.322 1154.43 786.341 1186.87 775.874 1203.32C765.408 1219.78 749.42 1214.01 740.165 1190.45C730.909 1166.88 731.891 1134.44 742.357 1117.99C752.824 1101.54 768.811 1107.3 778.067 1130.86Z" fill="#FEFEFE"/>
<path d="M768.59 1145.75C773.217 1157.54 772.727 1173.75 767.495 1181.98C762.264 1190.2 754.271 1187.32 749.643 1175.54C745.015 1163.76 745.505 1147.54 750.737 1139.31C755.969 1131.09 763.962 1133.97 768.59 1145.75Z" fill="white"/>
</g>
</g>
<defs>
<radialGradient id="paint0_radial_1_1771" cx="0" cy="0" r="1" gradientUnits="userSpaceOnUse" gradientTransform="translate(1328.34 2353.14) rotate(25.6473) scale(478.483 449.941)">
<stop stop-color="#D0D3DA"/>
<stop offset="0.28" stop-color="#E2E4E8"/>
<stop offset="0.71" stop-color="#F7F8F9"/>
<stop offset="0.98" stop-color="white"/>
</radialGradient>
<radialGradient id="paint1_radial_1_1771" cx="0" cy="0" r="1" gradientUnits="userSpaceOnUse" gradientTransform="translate(1512.21 1937.72) rotate(37.4584) scale(343.184 154.322)">
<stop stop-color="#D4D8DC"/>
<stop offset="0.01" stop-color="#D4D8DC"/>
<stop offset="0.63" stop-color="#F3F4F5"/>
<stop offset="0.98" stop-color="white"/>
</radialGradient>
<radialGradient id="paint2_radial_1_1771" cx="0" cy="0" r="1" gradientUnits="userSpaceOnUse" gradientTransform="translate(229.122 796.585) rotate(-175.913) scale(484.308 803.514)">
<stop stop-color="#D0D3DA"/>
<stop offset="0.28" stop-color="#E2E4E8"/>
<stop offset="0.71" stop-color="#F7F8F9"/>
<stop offset="0.98" stop-color="white"/>
</radialGradient>
<radialGradient id="paint3_radial_1_1771" cx="0" cy="0" r="1" gradientUnits="userSpaceOnUse" gradientTransform="translate(124.861 1081.4) rotate(-152.519) scale(326.657 275.893)">
<stop stop-color="#D4D8DC"/>
<stop offset="0.01" stop-color="#D4D8DC"/>
<stop offset="0.63" stop-color="#F3F4F5"/>
<stop offset="0.98" stop-color="white"/>
</radialGradient>
<radialGradient id="paint4_radial_1_1771" cx="0" cy="0" r="1" gradientUnits="userSpaceOnUse" gradientTransform="translate(1642.9 764.739) rotate(-113.02) scale(750.058 343.395)">
<stop stop-color="#D0D3DA"/>
<stop offset="0.28" stop-color="#E2E4E8"/>
<stop offset="0.71" stop-color="#F7F8F9"/>
<stop offset="0.98" stop-color="white"/>
</radialGradient>
<radialGradient id="paint5_radial_1_1771" cx="0" cy="0" r="1" gradientUnits="userSpaceOnUse" gradientTransform="translate(1520.55 1020.69) rotate(-121.35) scale(434.494 124.677)">
<stop stop-color="#D4D8DC"/>
<stop offset="0.01" stop-color="#D4D8DC"/>
<stop offset="0.63" stop-color="#F3F4F5"/>
<stop offset="0.98" stop-color="white"/>
</radialGradient>
<radialGradient id="paint6_radial_1_1771" cx="0" cy="0" r="1" gradientUnits="userSpaceOnUse" gradientTransform="translate(895.531 627.197) rotate(-113.02) scale(750.058 343.395)">
<stop stop-color="#D0D3DA"/>
<stop offset="0.28" stop-color="#E2E4E8"/>
<stop offset="0.71" stop-color="#F7F8F9"/>
<stop offset="0.98" stop-color="white"/>
</radialGradient>
<radialGradient id="paint7_radial_1_1771" cx="0" cy="0" r="1" gradientUnits="userSpaceOnUse" gradientTransform="translate(784.403 855.745) rotate(-121.35) scale(434.494 124.677)">
<stop stop-color="#D4D8DC"/>
<stop offset="0.01" stop-color="#D4D8DC"/>
<stop offset="0.63" stop-color="#F3F4F5"/>
<stop offset="0.98" stop-color="white"/>
</radialGradient>
<radialGradient id="paint8_radial_1_1771" cx="0" cy="0" r="1" gradientUnits="userSpaceOnUse" gradientTransform="translate(638.986 1503.81) rotate(-64.6601) scale(606.544 253.481)">
<stop stop-color="#D0D3DA"/>
<stop offset="0.28" stop-color="#E2E4E8"/>
<stop offset="0.71" stop-color="#F7F8F9"/>
<stop offset="0.98" stop-color="white"/>
</radialGradient>
<radialGradient id="paint9_radial_1_1771" cx="0" cy="0" r="1" gradientUnits="userSpaceOnUse" gradientTransform="translate(694.196 1401.15) rotate(-57.1789) scale(357.527 96.135)">
<stop stop-color="#D4D8DC"/>
<stop offset="0.01" stop-color="#D4D8DC"/>
<stop offset="0.63" stop-color="#F3F4F5"/>
<stop offset="0.98" stop-color="white"/>
</radialGradient>
<radialGradient id="paint10_radial_1_1771" cx="0" cy="0" r="1" gradientUnits="userSpaceOnUse" gradientTransform="translate(1265.74 1133.35) rotate(-64.6601) scale(606.544 253.482)">
<stop stop-color="#D0D3DA"/>
<stop offset="0.28" stop-color="#E2E4E8"/>
<stop offset="0.71" stop-color="#F7F8F9"/>
<stop offset="0.98" stop-color="white"/>
</radialGradient>
<radialGradient id="paint11_radial_1_1771" cx="0" cy="0" r="1" gradientUnits="userSpaceOnUse" gradientTransform="translate(1321.29 1050.1) rotate(-57.1789) scale(357.527 96.135)">
<stop stop-color="#D4D8DC"/>
<stop offset="0.01" stop-color="#D4D8DC"/>
<stop offset="0.63" stop-color="#F3F4F5"/>
<stop offset="0.98" stop-color="white"/>
</radialGradient>
<radialGradient id="paint12_radial_1_1771" cx="0" cy="0" r="1" gradientUnits="userSpaceOnUse" gradientTransform="translate(510.306 -190.14) rotate(-64.6601) scale(606.544 253.481)">
<stop stop-color="#D0D3DA"/>
<stop offset="0.28" stop-color="#E2E4E8"/>
<stop offset="0.71" stop-color="#F7F8F9"/>
<stop offset="0.98" stop-color="white"/>
</radialGradient>
<radialGradient id="paint13_radial_1_1771" cx="0" cy="0" r="1" gradientUnits="userSpaceOnUse" gradientTransform="translate(582.171 -309.87) rotate(-57.1789) scale(357.527 96.135)">
<stop stop-color="#D4D8DC"/>
<stop offset="0.01" stop-color="#D4D8DC"/>
<stop offset="0.63" stop-color="#F3F4F5"/>
<stop offset="0.98" stop-color="white"/>
</radialGradient>
<radialGradient id="paint14_radial_1_1771" cx="0" cy="0" r="1" gradientUnits="userSpaceOnUse" gradientTransform="translate(1082.76 247.202) rotate(-64.6601) scale(606.544 253.481)">
<stop stop-color="#D0D3DA"/>
<stop offset="0.28" stop-color="#E2E4E8"/>
<stop offset="0.71" stop-color="#F7F8F9"/>
<stop offset="0.98" stop-color="white"/>
</radialGradient>
<radialGradient id="paint15_radial_1_1771" cx="0" cy="0" r="1" gradientUnits="userSpaceOnUse" gradientTransform="translate(1147.61 150.933) rotate(-57.1789) scale(357.527 96.135)">
<stop stop-color="#D4D8DC"/>
<stop offset="0.01" stop-color="#D4D8DC"/>
<stop offset="0.63" stop-color="#F3F4F5"/>
<stop offset="0.98" stop-color="white"/>
</radialGradient>
<radialGradient id="paint16_radial_1_1771" cx="0" cy="0" r="1" gradientUnits="userSpaceOnUse" gradientTransform="translate(58.8187 1810.86) rotate(-64.6601) scale(606.544 253.481)">
<stop stop-color="#D0D3DA"/>
<stop offset="0.28" stop-color="#E2E4E8"/>
<stop offset="0.71" stop-color="#F7F8F9"/>
<stop offset="0.98" stop-color="white"/>
</radialGradient>
<radialGradient id="paint17_radial_1_1771" cx="0" cy="0" r="1" gradientUnits="userSpaceOnUse" gradientTransform="translate(114.052 1689.96) rotate(-57.1789) scale(357.527 96.135)">
<stop stop-color="#D4D8DC"/>
<stop offset="0.01" stop-color="#D4D8DC"/>
<stop offset="0.63" stop-color="#F3F4F5"/>
<stop offset="0.98" stop-color="white"/>
</radialGradient>
<radialGradient id="paint18_radial_1_1771" cx="0" cy="0" r="1" gradientUnits="userSpaceOnUse" gradientTransform="translate(1776.42 1424.65) rotate(25.6474) scale(478.483 449.941)">
<stop stop-color="#D0D3DA"/>
<stop offset="0.28" stop-color="#E2E4E8"/>
<stop offset="0.71" stop-color="#F7F8F9"/>
<stop offset="0.98" stop-color="white"/>
</radialGradient>
<radialGradient id="paint19_radial_1_1771" cx="0" cy="0" r="1" gradientUnits="userSpaceOnUse" gradientTransform="translate(2001.9 915.746) rotate(37.4584) scale(343.184 154.322)">
<stop stop-color="#D4D8DC"/>
<stop offset="0.01" stop-color="#D4D8DC"/>
<stop offset="0.63" stop-color="#F3F4F5"/>
<stop offset="0.98" stop-color="white"/>
</radialGradient>
<radialGradient id="paint20_radial_1_1771" cx="0" cy="0" r="1" gradientUnits="userSpaceOnUse" gradientTransform="translate(913.535 1521.87) rotate(25.6474) scale(398.454 374.686)">
<stop stop-color="#D0D3DA"/>
<stop offset="0.28" stop-color="#E2E4E8"/>
<stop offset="0.71" stop-color="#F7F8F9"/>
<stop offset="0.98" stop-color="white"/>
</radialGradient>
<radialGradient id="paint21_radial_1_1771" cx="0" cy="0" r="1" gradientUnits="userSpaceOnUse" gradientTransform="translate(1105.33 1080.32) rotate(37.4584) scale(285.784 128.51)">
<stop stop-color="#D4D8DC"/>
<stop offset="0.01" stop-color="#D4D8DC"/>
<stop offset="0.63" stop-color="#F3F4F5"/>
<stop offset="0.98" stop-color="white"/>
</radialGradient>
<radialGradient id="paint22_radial_1_1771" cx="0" cy="0" r="1" gradientUnits="userSpaceOnUse" gradientTransform="translate(499.115 672.176) rotate(25.6474) scale(478.492 449.95)">
<stop stop-color="#D0D3DA"/>
<stop offset="0.28" stop-color="#E2E4E8"/>
<stop offset="0.71" stop-color="#F7F8F9"/>
<stop offset="0.98" stop-color="white"/>
</radialGradient>
<radialGradient id="paint23_radial_1_1771" cx="0" cy="0" r="1" gradientUnits="userSpaceOnUse" gradientTransform="translate(699.431 203.056) rotate(37.4584) scale(343.151 154.307)">
<stop stop-color="#D4D8DC"/>
<stop offset="0.01" stop-color="#D4D8DC"/>
<stop offset="0.63" stop-color="#F3F4F5"/>
<stop offset="0.98" stop-color="white"/>
</radialGradient>
<radialGradient id="paint24_radial_1_1771" cx="0" cy="0" r="1" gradientUnits="userSpaceOnUse" gradientTransform="translate(317.907 2285.98) rotate(25.6474) scale(478.486 449.944)">
<stop stop-color="#D0D3DA"/>
<stop offset="0.28" stop-color="#E2E4E8"/>
<stop offset="0.71" stop-color="#F7F8F9"/>
<stop offset="0.98" stop-color="white"/>
</radialGradient>
<radialGradient id="paint25_radial_1_1771" cx="0" cy="0" r="1" gradientUnits="userSpaceOnUse" gradientTransform="translate(467.365 1937.27) rotate(37.4584) scale(343.158 154.31)">
<stop stop-color="#D4D8DC"/>
<stop offset="0.01" stop-color="#D4D8DC"/>
<stop offset="0.63" stop-color="#F3F4F5"/>
<stop offset="0.98" stop-color="white"/>
</radialGradient>
<clipPath id="clip0_1_1771">
<rect width="1920.24" height="2029.63" fill="white" transform="matrix(1 0 0 -1 -3 2030.16)"/>
</clipPath>
</defs>
</svg>
